<svg width="20" height="20" viewBox="0 0 20 20" fill="none" xmlns="http://www.w3.org/2000/svg">
<path d="M10 0C4.47754 0 0 4.47754 0 10C0 14.4189 2.865 18.1665 6.83898 19.4885C7.33887 19.5801 7.52137 19.2712 7.52137 19.0076C7.52137 18.7695 7.51221 17.981 7.50732 17.146C4.72656 17.7502 4.13879 15.9668 4.13879 15.9668C3.68348 14.812 3.02855 14.5044 3.02855 14.5044C2.11975 13.8843 3.0975 13.8965 3.0975 13.8965C4.10152 13.9661 4.63012 14.9268 4.63012 14.9268C5.52246 16.4551 6.97143 16.0132 7.54027 15.7568C7.63117 15.1123 7.88996 14.6704 8.17504 14.4214C5.9552 14.1687 3.62 13.3105 3.62 9.47875C3.62 8.38621 4.01002 7.49512 4.64844 6.79504C4.5465 6.54113 4.20227 5.52367 4.7473 4.14734C4.7473 4.14734 5.58594 3.87879 7.49754 5.17273C8.29465 4.94996 9.14977 4.8401 9.99998 4.83643C10.8496 4.8401 11.7053 4.95117 12.5037 5.17395C14.4116 3.87879 15.2515 4.14856 15.2515 4.14856C15.7983 5.52611 15.4541 6.54234 15.3516 6.79504C15.9924 7.49512 16.3794 8.38623 16.3794 9.47875C16.3794 13.3203 14.0405 14.1663 11.8128 14.4141C12.1729 14.7241 12.4915 15.332 12.4915 16.2646C12.4915 17.6013 12.478 18.6792 12.478 19.0088C12.478 19.2749 12.6599 19.5862 13.1665 19.4885C17.1375 18.1641 20 14.4165 20 10C20 4.47754 15.5225 0 10 0Z" fill="#063231"/>
</svg>
