<svg width="20" height="20" viewBox="0 0 20 20" fill="none" xmlns="http://www.w3.org/2000/svg">
<path d="M10 20C15.5228 20 20 15.5228 20 10C20 4.47715 15.5228 0 10 0C4.47715 0 0 4.47715 0 10C0 15.5228 4.47715 20 10 20Z" fill="#063231"/>
<path d="M13 5.125H7C5.95833 5.125 5.125 5.95833 5.125 7V9V13C5.125 14.0417 5.95833 14.875 7 14.875H13C14.0417 14.875 14.875 14.0417 14.875 13V9V7C14.875 5.95833 14.0417 5.125 13 5.125ZM13.5417 6.25H13.75V6.45833V7.91667H12.0833V6.25H13.5417ZM8.625 9C8.91667 8.58333 9.45833 8.29167 10 8.29167C10.5417 8.29167 11.0833 8.58333 11.375 9C11.5833 9.29167 11.7083 9.625 11.7083 10C11.7083 10.9583 10.9167 11.7083 10 11.7083C9.08333 11.7083 8.29167 10.9583 8.29167 10C8.29167 9.625 8.41667 9.29167 8.625 9ZM13.9167 13C13.9167 13.5 13.5 13.9167 13 13.9167H7C6.5 13.9167 6.08333 13.5 6.08333 13V9H7.54167C7.41667 9.29167 7.33333 9.66667 7.33333 10C7.33333 11.4583 8.54167 12.6667 10 12.6667C11.4583 12.6667 12.6667 11.4583 12.6667 10C12.6667 9.66667 12.5833 9.29167 12.4583 9H13.9167V13Z" fill="white"/>
</svg>
