<svg width="26" height="23" viewBox="0 0 26 23" fill="none" xmlns="http://www.w3.org/2000/svg">
<path d="M20.8847 21.5182H11.1777C10.3016 21.5182 8.52721 20.3675 8.52721 19.4272V10.8594C8.52721 10.6679 8.63028 10.4912 8.79647 10.3987C10.7328 9.31743 11.712 7.39686 12.7344 4.44869V1.62359C12.7344 1.52787 12.7596 1.43426 12.809 1.35222C13.1288 0.820019 13.682 0.514999 14.3268 0.514999C15.1566 0.514999 16.0296 1.0167 16.6628 1.85182C17.3012 2.69852 18.2121 4.56755 17.4601 7.84282H21.8913C22.8778 7.84282 25.115 8.85885 25.115 10.5291C25.115 11.0792 25.0498 11.9185 24.6995 12.4097C24.9751 13.1807 25.0277 14.4312 24.181 15.3126C24.2504 16.7978 23.877 17.8769 23.0892 18.468C23.0756 19.2526 22.7148 20.2119 22.17 20.8366C21.7861 21.2826 21.3401 21.5182 20.8847 21.5182ZM9.5811 11.1581V19.4251C9.66735 19.707 10.7339 20.4643 11.1798 20.4643H20.8857C21.0246 20.4643 21.2065 20.3455 21.3853 20.1404C21.8103 19.6513 22.109 18.7899 22.0353 18.2566C22.0048 18.0389 22.1121 17.8285 22.3067 17.7202C23.1608 17.2595 23.1839 15.9016 23.1239 15.1317C23.1082 14.9634 23.1807 14.7983 23.3112 14.6858C24.0748 14.0505 23.8392 12.8851 23.6204 12.5517C23.5268 12.4076 23.51 12.2256 23.572 12.0689C23.6372 11.9111 23.7719 11.7902 23.9412 11.7523C23.9191 11.7239 24.0706 11.2948 24.0706 10.5238C24.0706 9.66873 22.5076 8.88935 21.8997 8.88935H16.7901C16.6249 8.88935 16.4703 8.81362 16.3725 8.68215C16.2747 8.55068 16.241 8.38029 16.2863 8.22147C16.9594 5.84126 16.7922 3.75031 15.834 2.4808C15.3228 1.80134 14.7233 1.56153 14.3362 1.56153C14.1059 1.56153 13.9239 1.63621 13.7935 1.78556V4.52758C13.7935 4.58858 13.783 4.64222 13.7651 4.69902C12.7165 7.73133 11.6405 9.88224 9.5811 11.1581Z" fill="#063231"/>
<path d="M7.73626 22.57H1.95983C0.942749 22.57 0.11499 21.7422 0.11499 20.7251V9.68766C0.11499 8.67058 0.942749 7.84387 1.95983 7.84387H7.73626C8.75334 7.84387 9.5811 8.67058 9.5811 9.68766V20.7251C9.5811 21.7422 8.75334 22.57 7.73626 22.57ZM1.95983 8.89566C1.52229 8.89566 1.16678 9.25117 1.16678 9.68766V20.7251C1.16678 21.1627 1.52229 21.5182 1.95983 21.5182H7.73626C8.17381 21.5182 8.52931 21.1627 8.52931 20.7251V9.68766C8.52931 9.25117 8.17381 8.89566 7.73626 8.89566H1.95983Z" fill="#063231"/>
</svg>
