<svg width="20" height="14" viewBox="0 0 20 14" fill="none" xmlns="http://www.w3.org/2000/svg">
<path d="M19.8911 11.5815C19.8187 11.5086 19.7257 11.4724 19.6126 11.4724H7.98305C7.87002 11.4724 7.7771 11.5086 7.70441 11.5815C7.63182 11.6541 7.59558 11.7468 7.59558 11.8599V12.6353C7.59558 12.7482 7.63182 12.8412 7.70441 12.9138C7.7771 12.9864 7.87002 13.0228 7.98305 13.0228H19.6126C19.7257 13.0228 19.8187 12.9864 19.8911 12.9138C19.9637 12.8412 20 12.7482 20 12.6353V11.8599C20.0002 11.7468 19.964 11.6541 19.8911 11.5815Z" fill="#F4FEFE"/>
<path d="M1.2839 0.121181C1.20315 0.0404359 1.11023 0 1.00526 0C0.900287 0 0.807491 0.0404359 0.726789 0.121181L0.121011 0.727001C0.0403088 0.807703 0 0.900499 0 1.00556C0 1.1107 0.0403088 1.20345 0.121011 1.2842L4.88203 6.04509L0.121011 10.806C0.0403088 10.8868 0 10.9797 0 11.0845C0 11.1897 0.0403088 11.2825 0.121011 11.3632L0.726747 11.9688C0.807491 12.0497 0.900244 12.0899 1.00522 12.0899C1.11019 12.0899 1.20315 12.0495 1.28386 11.9688L6.92913 6.32365C7.00987 6.24294 7.05018 6.14985 7.05018 6.04488C7.05018 5.93995 7.00987 5.84703 6.92913 5.76632L1.2839 0.121181Z" fill="#F4FEFE"/>
</svg>
