<svg width="20" height="20" viewBox="0 0 20 20" fill="none" xmlns="http://www.w3.org/2000/svg">
<path d="M10 0C4.47716 0 0 4.47797 0 10C0 15.5228 4.47675 19.9992 10 19.9992C15.5237 19.9992 20 15.5228 20 10C20 4.47797 15.5232 0 10 0ZM12.6879 15.825C12.2753 15.825 9.99431 15.771 9.41157 15.771C8.82924 15.771 5.79249 14.824 5.79249 11.483C5.79249 10.8881 5.79208 10.29 5.79046 9.69462C5.78802 9.13949 5.77665 8.58518 5.77462 8.03371C5.77421 7.87289 5.7734 7.71168 5.77259 7.55086C5.76853 6.70944 5.69746 5.76203 5.96792 4.95391C6.17502 4.33746 6.66477 4.09096 7.26822 4.09096C8.72772 4.09096 8.82518 5.57888 8.82924 7.0733H13.0473C13.7153 7.0733 14.214 7.75066 14.214 8.78741C14.214 9.82335 13.133 10.0556 12.5673 10.0556H8.78254C8.76345 10.69 8.74274 11.2065 8.74274 11.5204C8.74274 12.1803 9.00061 12.895 10.6124 12.895H12.8776C13.4432 12.895 14.2822 13.3235 14.2822 14.5202C14.2822 15.7153 13.0993 15.825 12.6879 15.825Z" fill="#063231"/>
</svg>
