<svg width="25" height="22" viewBox="0 0 25 22" fill="none" xmlns="http://www.w3.org/2000/svg">
<path d="M14.2982 21.7791C13.6136 21.7791 13.0289 21.4573 12.6945 20.902C12.6462 20.82 12.6209 20.7254 12.6209 20.6307V17.8041C11.5978 14.8576 10.6198 12.9385 8.68386 11.8564C8.51771 11.7618 8.41466 11.5851 8.41466 11.3959V2.82978C8.41466 1.80029 10.2749 1.05263 11.0646 1.05263H20.7685C21.2449 1.05263 21.7107 1.29554 22.1134 1.75928C22.6371 2.35973 22.9684 3.22517 22.9778 3.96863C23.7665 4.54804 24.1346 5.56281 24.0673 6.98979C24.8906 7.85418 24.8707 9.13394 24.5836 9.93418C24.9359 10.4379 25 11.3149 25 11.8838C25 13.5263 22.7391 14.722 21.778 14.722H17.3456C18.0754 17.9051 17.2226 19.6875 16.6179 20.4846C16.0007 21.2953 15.1352 21.7791 14.2982 21.7791ZM13.6704 20.4646C13.8534 20.6781 14.1057 20.7275 14.2982 20.7275C14.8061 20.7275 15.3613 20.3983 15.7756 19.8505C16.3035 19.1522 17.0565 17.5065 16.1595 14.3382C16.1142 14.1825 16.1458 14.009 16.2457 13.8776C16.3466 13.7461 16.5002 13.6715 16.6642 13.6715H21.7717C22.3479 13.6715 23.9432 12.7808 23.9432 11.8827C23.9432 11.1256 23.8044 10.6776 23.7255 10.5483C23.5993 10.4926 23.4973 10.3927 23.4447 10.2623C23.3785 10.1056 23.3995 9.92366 23.4931 9.7796C23.7339 9.40734 23.9221 8.22433 23.1839 7.60811C23.0525 7.49875 22.9831 7.33155 22.9968 7.16119C23.0988 5.86566 22.8317 5.06016 22.1797 4.70893C21.9862 4.60378 21.8779 4.39136 21.9084 4.17368C21.9757 3.66998 21.7149 2.9139 21.3122 2.45016C21.1197 2.23038 20.9189 2.1042 20.7611 2.1042H11.0594C10.5567 2.1042 9.56297 2.61947 9.45571 2.88025L9.46202 11.0962C11.521 12.3707 12.5957 14.5253 13.6399 17.5486C13.662 17.6043 13.6672 17.659 13.6672 17.7189V20.4625H13.6693V20.4646H13.6704V20.4646Z" fill="#063231"/>
<path d="M7.61967 14.723H1.84445C0.827585 14.723 0 13.8954 0 12.8786V1.8434C0 0.826533 0.827585 0 1.84445 0H7.61967C8.63654 0 9.46412 0.826533 9.46412 1.8434V12.8775C9.46412 13.8944 8.63654 14.723 7.61967 14.723ZM1.84445 1.05262C1.407 1.05262 1.05157 1.40805 1.05157 1.84445V12.8786C1.05157 13.316 1.407 13.6715 1.84445 13.6715H7.61967C8.05712 13.6715 8.41255 13.316 8.41255 12.8786V1.8434C8.41255 1.407 8.05712 1.05157 7.61967 1.05157H1.84445V1.05262Z" fill="#063231"/>
</svg>
