<svg width="20" height="20" viewBox="0 0 20 20" fill="none" xmlns="http://www.w3.org/2000/svg">
<path d="M5.73035 10.8418H6.45441V14.4386H7.15411V10.8418H7.87736V10.2294H5.73035V10.8418Z" fill="black"/>
<path d="M10.0268 7.853C10.1218 7.853 10.1974 7.82782 10.253 7.77625C10.3086 7.72305 10.3371 7.65076 10.3371 7.5598V5.69584C10.3371 5.62112 10.3086 5.56021 10.2514 5.51513C10.1941 5.46843 10.1198 5.44528 10.0268 5.44528C9.94193 5.44528 9.87289 5.46843 9.81888 5.51513C9.76568 5.56021 9.73969 5.62153 9.73969 5.69584V7.5598C9.73969 7.6532 9.76446 7.72549 9.81441 7.77625C9.86355 7.82782 9.93502 7.853 10.0268 7.853Z" fill="black"/>
<path d="M11.5695 11.2954C11.4729 11.2954 11.3775 11.3202 11.2832 11.3693C11.1903 11.4185 11.1009 11.4916 11.0177 11.5858V10.2294H10.3903V14.4386H11.0177V14.2006C11.0985 14.2965 11.1874 14.3663 11.2824 14.4118C11.3766 14.4569 11.4855 14.4792 11.6077 14.4792C11.7909 14.4792 11.933 14.4211 12.0288 14.3038C12.1263 14.1856 12.1754 14.0175 12.1754 13.7978V12.0743C12.1754 11.8197 12.1239 11.626 12.0191 11.4944C11.9159 11.362 11.7661 11.2954 11.5695 11.2954ZM11.5354 13.7121C11.5354 13.812 11.5172 13.8826 11.4814 13.9261C11.4457 13.9704 11.39 13.9919 11.3141 13.9919C11.2617 13.9919 11.2126 13.9801 11.1643 13.9586C11.1167 13.9371 11.0668 13.8993 11.0177 13.8489V11.9143C11.0599 11.8709 11.1025 11.8388 11.1452 11.8193C11.1878 11.7978 11.2325 11.7884 11.2767 11.7884C11.36 11.7884 11.425 11.8152 11.4705 11.8684C11.5139 11.9233 11.5354 12.0024 11.5354 12.108V13.7121Z" fill="black"/>
<path d="M9.30193 13.693C9.24386 13.7596 9.1797 13.8144 9.10985 13.8587C9.04 13.9021 8.98152 13.9237 8.93685 13.9237C8.87797 13.9237 8.83614 13.9078 8.80934 13.8745C8.78416 13.842 8.77035 13.7888 8.77035 13.7157V11.3332H8.15025V13.9302C8.15025 14.1157 8.1868 14.2522 8.25909 14.3464C8.33299 14.4386 8.4398 14.4845 8.58355 14.4845C8.7001 14.4845 8.82071 14.4528 8.94457 14.3862C9.06843 14.3188 9.18741 14.2238 9.30233 14.0983V14.4386H9.92325V11.3336H9.30233V13.693H9.30193Z" fill="#063231"/>
<path d="M10 0C4.47716 0 0 4.47716 0 10C0 15.5237 4.47716 20 10 20C15.5228 20 20 15.5237 20 10C20 4.47716 15.5224 0 10 0ZM11.6154 4.93888H12.3135V7.56183C12.3135 7.64345 12.3293 7.70152 12.3586 7.73726C12.387 7.77381 12.4349 7.79289 12.5007 7.79289C12.5515 7.79289 12.6164 7.76812 12.6956 7.72061C12.7732 7.67147 12.8455 7.61056 12.9105 7.53502V4.93888H13.6102V8.3598H12.9105V7.98213C12.7829 8.12102 12.6485 8.22782 12.5084 8.3001C12.3695 8.37239 12.2347 8.40975 12.1031 8.40975C11.9415 8.40975 11.8201 8.35817 11.7377 8.25584C11.6569 8.15513 11.6154 8.00284 11.6154 7.79736V4.93888ZM9.02051 5.72101C9.02051 5.45706 9.11391 5.24589 9.30193 5.08711C9.49076 4.93157 9.74376 4.85239 10.0609 4.85239C10.3505 4.85239 10.5868 4.93563 10.7724 5.10051C10.9563 5.26538 11.0485 5.4798 11.0485 5.74132V7.50782C11.0485 7.80142 10.958 8.03046 10.7781 8.19614C10.5957 8.36183 10.3468 8.44508 10.0292 8.44508C9.72386 8.44508 9.47898 8.35939 9.29543 8.18883C9.11228 8.01584 9.0201 7.78436 9.0201 7.49401V5.72101H9.02051ZM7.11675 3.72305L7.62761 5.57563H7.67756L8.16365 3.72305H8.96325L8.04792 6.43655V8.3602H7.26091V6.52223L6.32406 3.72305H7.11675V3.72305ZM16.2696 13.4826C16.2696 14.72 15.2662 15.7243 14.0288 15.7243H6.24162C5.00345 15.7243 4 14.72 4 13.4826V11.6804C4 10.4422 5.00345 9.43878 6.24162 9.43878H14.0288C15.2662 9.43878 16.2696 10.4422 16.2696 11.6804V13.4826Z" fill="black"/>
<path d="M13.4437 11.2564C13.1651 11.2564 12.9401 11.3405 12.7639 11.5111C12.5884 11.68 12.4999 11.9005 12.4999 12.1677V13.5639C12.4999 13.8635 12.5807 14.0983 12.7403 14.268C12.8999 14.4386 13.1188 14.5243 13.397 14.5243C13.7064 14.5243 13.9387 14.4443 14.0934 14.2838C14.2506 14.1222 14.3273 13.8826 14.3273 13.5639V13.4043H13.6889V13.5456C13.6889 13.7287 13.6674 13.8469 13.6272 13.9001C13.587 13.9533 13.5147 13.9801 13.4116 13.9801C13.3125 13.9801 13.2426 13.9492 13.2012 13.8867C13.1606 13.8225 13.1411 13.7096 13.1411 13.5456V12.9612H14.3277V12.1681C14.3277 11.8745 14.2522 11.6495 14.0995 11.4916C13.9464 11.3348 13.7275 11.2564 13.4437 11.2564ZM13.6889 12.478H13.1407V12.1641C13.1407 12.0341 13.1606 11.9395 13.2041 11.8855C13.2475 11.8274 13.3182 11.7998 13.4173 11.7998C13.5107 11.7998 13.5813 11.8274 13.6236 11.8855C13.6662 11.9395 13.6885 12.0337 13.6885 12.1641V12.478H13.6889Z" fill="black"/>
</svg>
